<svg width="20" height="21" viewBox="0 0 20 21" fill="none" xmlns="http://www.w3.org/2000/svg">
<path d="M19.8227 8.36278C19.9418 9.04748 20.0011 9.74124 20 10.4362C20 13.54 18.8906 16.1644 16.9599 17.9407H16.9625C15.2742 19.5002 12.9533 20.4031 10.2015 20.4031C7.49587 20.4031 4.90109 19.3283 2.98794 17.4151C1.07479 15.502 0 12.9072 0 10.2016C0 7.49599 1.07479 4.90121 2.98794 2.98806C4.90109 1.07492 7.49587 0.00012126 10.2015 0.00012126C12.7336 -0.0280781 15.1788 0.923121 17.0263 2.65505L14.1137 5.56757C13.0607 4.56432 11.6557 4.0148 10.2015 4.03735C7.54016 4.03735 5.27926 5.83281 4.47335 8.25056C4.04679 9.51759 4.04679 10.8894 4.47335 12.1564H4.47717C5.28691 14.5704 7.54399 16.3658 10.2053 16.3658C11.5799 16.3658 12.7608 16.0139 13.6763 15.3916H13.6725C14.2043 15.0395 14.6591 14.5833 15.0096 14.0505C15.36 13.5176 15.5988 12.9193 15.7115 12.2916H10.2015V8.36405L19.8227 8.36278Z" fill="#808080"/>
</svg>
